# xmcd
#
# Track frame offsets: 
#        150
#        20089
#        37708
#        59772
#        79347
#        97821
#        125648
#        144663
#        164743
#
# Disc length: 2562 seconds
#
# Revision: 1
# Processed by: cddbd v1.5.2PL0 Copyright (c) Steve Scherf et al.
# Submitted via: ExactAudioCopy v0.95b4
#
DISCID=7c0a0009
DTITLE=Thad Beckman - Beckman
DYEAR=2002
DGENRE=Blues
TTITLE0=The Land That I love
TTITLE1=Goin' Downtown Mama
TTITLE2=Outlaw In Texas
TTITLE3=Death's Rattle
TTITLE4=On That Train And Gone
TTITLE5=Sanson's Song
TTITLE6=Goin' To The Valley
TTITLE7=Oh Death
TTITLE8=Virginia Blues
EXTD=beckman plays country influenced folk impregnated blues
EXTT0=
EXTT1=
EXTT2=
EXTT3=
EXTT4=
EXTT5=
EXTT6=
EXTT7=
EXTT8=
PLAYORDER=
